# xmcd CD database file
#
# Track frame offsets:
#	150
#	11197
#	22462
#	39120
#	52864
#	64114
#	83637
#	96654
#	107787
#	117540
#	131395
#	164770
#	185645
#	199305
#	221887
#	237275
#	252250
#	262410
#	269287
#	296182
#	315630
#
# Disc length: 4437 seconds
#
# Revision: 0
# Processed by: cddbd v1.4PL0 Copyright (c) Steve Scherf et al.
# Submitted via: Feurio! 1.65 - http://www.feurio.com
#
DISCID=50115315
DTITLE=Various Artist - Land Of The Kantrie Giants
DYEAR=1900
DGENRE=
TTITLE0=Fink - Du Kennst Mich Nicht
TTITLE1=COW - The Truth, the whole truth and nothing but the truth
TTITLE2=The Twang! - Fight For Your Right To Party
TTITLE3=Gerry Lee and The Wanted Men - Bluer Than Bluegrass
TTITLE4=DM Bob and The Deficits - (Slide Off Of Your)Satin Sheets
TTITLE5=Hank McCoy - Where Do We Go This Time
TTITLE6=Missouri - Please, Please, Please
TTITLE7=Phil Duke - Stuntman
TTITLE8=Butterscotch - Still Wonder Why
TTITLE9=J.B.Luis - I Wish I Was Your Headlice
TTITLE10=Multiboy - Someone Always Dies(Western Version)
TTITLE11=Halma - Container Gesunken
TTITLE12=Tenfold Loadstar - Tracks
TTITLE13=Golem - Every Doubt Is An Unregarded Try
TTITLE14=Carnival Of Souls - Mr.Aloha
TTITLE15=Jimmy Hotspoon - Holiday In Cambodia
TTITLE16=Handschlag - Wenn Du Tanzt
TTITLE17=Thee Watzloves - Mighty Way
TTITLE18=Das Weeth Experience - You Never See It Coming
TTITLE19=1/2 Couch - August
TTITLE20=Staub - Remember Me
EXTD=
EXTT0=
EXTT1=
EXTT2=
EXTT3=
EXTT4=
EXTT5=
EXTT6=
EXTT7=
EXTT8=
EXTT9=
EXTT10=
EXTT11=
EXTT12=
EXTT13=
EXTT14=
EXTT15=
EXTT16=
EXTT17=
EXTT18=
EXTT19=
EXTT20=
PLAYORDER=
